<svg xmlns="http://www.w3.org/2000/svg" width="1200" height="1200" fill="none"><rect width="1200" height="1200" fill="#EAEAEA" rx="3"/><g opacity=".5"><g opacity=".5"><path fill="#FAFAFA" d="M600.709 736.5c-75.454 0-136.621-61.167-136.621-136.62 0-75.454 61.167-136.621 136.621-136.621 75.453 0 136.62 61.167 136.62 136.621 0 75.453-61.167 136.62-136.62 136.62Z"/><path stroke="#C9C9C9" stroke-width="2.418" d="M600.709 736.5c-75.454 0-136.621-61.167-136.621-136.62 0-75.454 61.167-136.621 136.621-136.621 75.453 0 136.62 61.167 136.62 136.621 0 75.453-61.167 136.62-136.62 136.62Z"/></g><path stroke="url(#a)" stroke-width="2.418" d="M0-1.209h553.581" transform="matrix(0 -1 -1 0 600.709 600.709)"/><path stroke="url(#b)" stroke-width="2.418" d="M0-1.209h553.581" transform="matrix(0 -1 -1 0 600.709 600.709)"/><path stroke="url(#c)" stroke-width="2.418" d="M0-1.209h553.581" transform="rotate(90 47.128 553.581)"/><path stroke="url(#d)" stroke-width="2.418" d="M0-1.209h553.581" transform="rotate(90 47.128 553.581)"/></g><defs><linearGradient id="a" x1="554.061" x2="0.48" y1="0" y2="0" gradientUnits="userSpaceOnUse"><stop stop-color="#C9C9C9" stop-opacity="0"/><stop offset=".208" stop-color="#C9C9C9"/><stop offset=".792" stop-color="#C9C9C9"/><stop offset="1" stop-color="#C9C9C9" stop-opacity="0"/></linearGradient><linearGradient id="b" x1="554.061" x2="0.48" y1="0" y2="0" gradientUnits="userSpaceOnUse"><stop stop-color="#C9C9C9" stop-opacity="0"/><stop offset=".208" stop-color="#C9C9C9"/><stop offset=".792" stop-color="#C9C9C9"/><stop offset="1" stop-color="#C9C9C9" stop-opacity="0"/></linearGradient><linearGradient id="c" x1="554.061" x2="0.48" y1="0" y2="0" gradientUnits="userSpaceOnUse"><stop stop-color="#C9C9C9" stop-opacity="0"/><stop offset=".208" stop-color="#C9C9C9"/><stop offset=".792" stop-color="#C9C9C9"/><stop offset="1" stop-color="#C9C9C9" stop-opacity="0"/></linearGradient><linearGradient id="d" x1="554.061" x2="0.48" y1="0" y2="0" gradientUnits="userSpaceOnUse"><stop stop-color="#C9C9C9" stop-opacity="0"/><stop offset=".208" stop-color="#C9C9C9"/><stop offset=".792" stop-color="#C9C9C9"/><stop offset="1" stop-color="#C9C9C9" stop-opacity="0"/></linearGradient></defs></svg>
